<svg viewBox="0 0 512 512" xmlns="http://www.w3.org/2000/svg"><defs><filter id="g" x="-60%" y="-60%" width="220%" height="220%"><feGaussianBlur stdDeviation="4" result="b"/><feMerge><feMergeNode in="b"/><feMergeNode in="SourceGraphic"/></feMerge></filter></defs><rect width="512" height="512" rx="96" fill="#0A0E13"/><g transform="translate(256,256) scale(0.9) translate(-256,-256)"><path d="M 309.4 109.4 A 156 156 0 1 1 202.6 109.4" fill="none" stroke="#2EE07F" stroke-width="26" stroke-linecap="round" filter="url(#g)"/><path d="M 166.5 128.2 A 156 156 0 0 1 202.6 109.4" fill="none" stroke="#1C6E47" stroke-width="26" stroke-linecap="round"/><rect x="154" y="201" width="27" height="18" rx="5" fill="#1C6E47"/><rect x="331" y="201" width="27" height="18" rx="5" fill="#1C6E47"/><rect x="201" y="154" width="18" height="27" rx="5" fill="#1C6E47"/><rect x="201" y="331" width="18" height="27" rx="5" fill="#1C6E47"/><rect x="154" y="247" width="27" height="18" rx="5" fill="#1C6E47"/><rect x="331" y="247" width="27" height="18" rx="5" fill="#1C6E47"/><rect x="247" y="154" width="18" height="27" rx="5" fill="#1C6E47"/><rect x="247" y="331" width="18" height="27" rx="5" fill="#1C6E47"/><rect x="154" y="293" width="27" height="18" rx="5" fill="#1C6E47"/><rect x="331" y="293" width="27" height="18" rx="5" fill="#1C6E47"/><rect x="293" y="154" width="18" height="27" rx="5" fill="#1C6E47"/><rect x="293" y="331" width="18" height="27" rx="5" fill="#1C6E47"/><rect x="181" y="181" width="150" height="150" rx="30" fill="#0C1116" stroke="#2EE07F" stroke-width="14"/><path d="M 214 256 L 242 286 L 300 222" fill="none" stroke="#5CF0A8" stroke-width="20" stroke-linecap="round" stroke-linejoin="round" filter="url(#g)"/></g></svg>